<svg width="16" height="16" viewBox="0 0 16 16" fill="none" xmlns="http://www.w3.org/2000/svg">
<path d="M9.33333 6.2V8.13333H11.0667C11.2 8.13333 11.2667 8.26667 11.2667 8.4L11 9.66667C11 9.73333 10.8667 9.8 10.8 9.8H9.33333V14.6667H7.33333V9.86667H6.2C6.06667 9.86667 6 9.8 6 9.66667V8.4C6 8.26667 6.06667 8.2 6.2 8.2H7.33333V6C7.33333 4.86667 8.2 4 9.33333 4H11.1333C11.2667 4 11.3333 4.06667 11.3333 4.2V5.8C11.3333 5.93333 11.2667 6 11.1333 6H9.53333C9.4 6 9.33333 6.06667 9.33333 6.2Z" stroke="#FCFCFC" stroke-miterlimit="10" stroke-linecap="round"/>
<path d="M10 14.6667H6.00004C2.66671 14.6667 1.33337 13.3333 1.33337 10V6.00001C1.33337 2.66668 2.66671 1.33334 6.00004 1.33334H10C13.3334 1.33334 14.6667 2.66668 14.6667 6.00001V10C14.6667 13.3333 13.3334 14.6667 10 14.6667Z" stroke="#FCFCFC" stroke-linecap="round" stroke-linejoin="round"/>
</svg>
