<svg width="22" height="21" viewBox="0 0 22 21" fill="none" xmlns="http://www.w3.org/2000/svg">
<path d="M7.75 20V12.6C7.75 12.0399 7.75 11.7599 7.859 11.546C7.95487 11.3578 8.10785 11.2049 8.29601 11.109C8.50993 11 8.78995 11 9.35 11H12.15C12.7101 11 12.9901 11 13.204 11.109C13.3922 11.2049 13.5451 11.3578 13.641 11.546C13.75 11.7599 13.75 12.0399 13.75 12.6V20M0.75 8.5L9.79 1.72C10.1343 1.46181 10.3064 1.33271 10.4954 1.28294C10.6623 1.23902 10.8377 1.23902 11.0046 1.28295C11.1936 1.33271 11.3657 1.46181 11.71 1.72L20.75 8.5M2.75 7V16.8C2.75 17.9201 2.75 18.4802 2.96799 18.908C3.15974 19.2843 3.4657 19.5903 3.84202 19.782C4.26985 20 4.8299 20 5.95 20H15.55C16.6701 20 17.2302 20 17.658 19.782C18.0343 19.5903 18.3403 19.2843 18.532 18.908C18.75 18.4802 18.75 17.9201 18.75 16.8V7L12.67 2.44C11.9815 1.92361 11.6372 1.66542 11.2591 1.56589C10.9254 1.47804 10.5746 1.47804 10.2409 1.56589C9.86278 1.66542 9.51852 1.92361 8.83 2.44L2.75 7Z" stroke="#FCFCFC" stroke-width="1.5" stroke-linecap="round" stroke-linejoin="round"/>
</svg>
