<svg width="16" height="16" viewBox="0 0 16 16" fill="none" xmlns="http://www.w3.org/2000/svg">
<path d="M6.00004 14.6667H10C13.3334 14.6667 14.6667 13.3333 14.6667 10V6.00001C14.6667 2.66668 13.3334 1.33334 10 1.33334H6.00004C2.66671 1.33334 1.33337 2.66668 1.33337 6.00001V10C1.33337 13.3333 2.66671 14.6667 6.00004 14.6667Z" stroke="#FCFCFC" stroke-linecap="round" stroke-linejoin="round"/>
<path d="M7.99996 10.3333C9.28862 10.3333 10.3333 9.28865 10.3333 7.99999C10.3333 6.71133 9.28862 5.66666 7.99996 5.66666C6.71129 5.66666 5.66663 6.71133 5.66663 7.99999C5.66663 9.28865 6.71129 10.3333 7.99996 10.3333Z" stroke="#FCFCFC" stroke-linecap="round" stroke-linejoin="round"/>
<path d="M11.7575 4.66668H11.7652" stroke="#FCFCFC" stroke-width="2" stroke-linecap="round" stroke-linejoin="round"/>
</svg>
