<svg width="13" height="14" viewBox="0 0 13 14" fill="none" xmlns="http://www.w3.org/2000/svg">
<path d="M10.5213 10.1046C9.99949 10.6263 9.00195 11.6239 8.16384 12.462C7.38279 13.243 6.11729 13.2431 5.33624 12.462C4.51385 11.6396 3.53311 10.6589 2.97878 10.1046C0.895988 8.02177 0.895988 4.64489 2.97878 2.5621C5.06158 0.479301 8.43846 0.479301 10.5213 2.5621C12.6041 4.64489 12.6041 8.02177 10.5213 10.1046Z" stroke="#FCFCFC" stroke-linecap="round" stroke-linejoin="round"/>
<path d="M8.75002 6.33333C8.75002 7.4379 7.85459 8.33333 6.75002 8.33333C5.64545 8.33333 4.75002 7.4379 4.75002 6.33333C4.75002 5.22876 5.64545 4.33333 6.75002 4.33333C7.85459 4.33333 8.75002 5.22876 8.75002 6.33333Z" stroke="#FCFCFC" stroke-linecap="round" stroke-linejoin="round"/>
</svg>
